<svg xmlns="http://www.w3.org/2000/svg" style="display: none;">
  <symbol id="bi-grid" viewBox="0 0 16 16">
    <path d="M1 2.5A1.5 1.5 0 0 1 2.5 1h3A1.5 1.5 0 0 1 7 2.5v3A1.5 1.5 0 0 1 5.5 7h-3A1.5 1.5 0 0 1 1 5.5v-3zM2.5 2a.5.5 0 0 0-.5.5v3a.5.5 0 0 0 .5.5h3a.5.5 0 0 0 .5-.5v-3a.5.5 0 0 0-.5-.5h-3zm6.5.5A1.5 1.5 0 0 1 10.5 1h3A1.5 1.5 0 0 1 15 2.5v3A1.5 1.5 0 0 1 13.5 7h-3A1.5 1.5 0 0 1 9 5.5v-3zm1.5-.5a.5.5 0 0 0-.5.5v3a.5.5 0 0 0 .5.5h3a.5.5 0 0 0 .5-.5v-3a.5.5 0 0 0-.5-.5h-3zM1 10.5A1.5 1.5 0 0 1 2.5 9h3A1.5 1.5 0 0 1 7 10.5v3A1.5 1.5 0 0 1 5.5 15h-3A1.5 1.5 0 0 1 1 13.5v-3zm1.5-.5a.5.5 0 0 0-.5.5v3a.5.5 0 0 0 .5.5h3a.5.5 0 0 0 .5-.5v-3a.5.5 0 0 0-.5-.5h-3zm6.5.5A1.5 1.5 0 0 1 10.5 9h3a1.5 1.5 0 0 1 1.5 1.5v3a1.5 1.5 0 0 1-1.5 1.5h-3A1.5 1.5 0 0 1 9 13.5v-3zm1.5-.5a.5.5 0 0 0-.5.5v3a.5.5 0 0 0 .5.5h3a.5.5 0 0 0 .5-.5v-3a.5.5 0 0 0-.5-.5h-3z"/>
  </symbol>
  <symbol id="bi-palette" viewBox="0 0 16 16">
    <path d="M8 5a1.5 1.5 0 1 0 0-3 1.5 1.5 0 0 0 0 3zm4 3a1.5 1.5 0 1 0 0-3 1.5 1.5 0 0 0 0 3zM5.5 7a1.5 1.5 0 1 1-3 0 1.5 1.5 0 0 1 3 0zm.5 6a1.5 1.5 0 1 0 0-3 1.5 1.5 0 0 0 0 3z"/>
    <path d="M16 8c0 3.15-1.866 2.585-3.567 2.07C11.42 9.763 10.465 9.473 10 10c-.603.683-.475 1.819-.351 2.92C9.826 14.495 9.996 16 8 16a8 8 0 1 1 8-8zm-8 7c.611 0 .654-.171.655-.176.078-.146.124-.464.07-1.119-.014-.168-.037-.37-.061-.591-.052-.464-.112-1.005-.118-1.462-.01-.707.083-1.61.704-2.314.369-.417.845-.578 1.272-.618.404-.038.812.026 1.16.104.343.077.702.186 1.025.284l.028.008c.346.105.658.199.953.266.653.148.904.083.991.024C14.717 9.38 15 9.161 15 8a7 7 0 1 0-7 7z"/>
  </symbol>
  <symbol id="bi-type" viewBox="0 0 16 16">
    <path d="M2.244 13.081l.943-2.803H6.66l.944 2.803H8.86L5.54 3.75H4.322L1 13.081h1.244zm2.7-7.923L6.34 9.314H3.51l1.4-4.156h.034zm9.146 7.027h.035v.896h1.128V8.125c0-1.51-1.114-2.345-2.646-2.345-1.736 0-2.59.916-2.666 2.174h1.108c.068-.718.595-1.19 1.517-1.19.971 0 1.518.52 1.518 1.464v.731H12.19c-1.647.007-2.522.8-2.522 2.058 0 1.319.957 2.18 2.345 2.18 1.06 0 1.716-.43 2.078-1.011zm-1.763.035c-.752 0-1.456-.397-1.456-1.244 0-.65.424-1.115 1.408-1.115h1.805v.834c0 .896-.752 1.525-1.757 1.525z"/>
  </symbol>
  <symbol id="bi-phone" viewBox="0 0 16 16">
    <path d="M11 1a1 1 0 0 1 1 1v12a1 1 0 0 1-1 1H5a1 1 0 0 1-1-1V2a1 1 0 0 1 1-1h6zM5 0a2 2 0 0 0-2 2v12a2 2 0 0 0 2 2h6a2 2 0 0 0 2-2V2a2 2 0 0 0-2-2H5z"/>
    <path d="M8 14a1 1 0 1 0 0-2 1 1 0 0 0 0 2z"/>
  </symbol>
  <symbol id="bi-box" viewBox="0 0 16 16">
    <path d="M8.186 1.113a.5.5 0 0 0-.372 0L1.846 3.5 8 5.961 14.154 3.5 8.186 1.113zM15 4.239l-6.5 2.6v7.922l6.5-2.6V4.24zM7.5 14.762V6.838L1 4.239v7.923l6.5 2.6zM7.443.184a1.5 1.5 0 0 1 1.114 0l7.129 2.852A.5.5 0 0 1 16 3.5v8.662a1 1 0 0 1-.629.928l-7.185 2.874a.5.5 0 0 1-.372 0L.63 13.09a1 1 0 0 1-.63-.928V3.5a.5.5 0 0 1 .314-.464L7.443.184z"/>
  </symbol>
  <symbol id="bi-check2-square" viewBox="0 0 16 16">
    <path d="M3 14.5A1.5 1.5 0 0 1 1.5 13V3A1.5 1.5 0 0 1 3 1.5h8a.5.5 0 0 1 0 1H3a.5.5 0 0 0-.5.5v10a.5.5 0 0 0 .5.5h10a.5.5 0 0 0 .5-.5V8a.5.5 0 0 1 1 0v5a1.5 1.5 0 0 1-1.5 1.5H3z"/>
    <path d="m8.354 10.354 7-7a.5.5 0 0 0-.708-.708L8 9.293 5.354 6.646a.5.5 0 1 0-.708.708l3 3a.5.5 0 0 0 .708 0z"/>
  </symbol>
  <symbol id="bi-globe" viewBox="0 0 16 16">
    <path d="M0 8a8 8 0 1 1 16 0A8 8 0 0 1 0 8zm7.5-6.923c-.67.204-1.335.82-1.887 1.855A7.97 7.97 0 0 0 5.145 4H7.5V1.077zM4.09 4a9.267 9.267 0 0 1 .64-1.539 6.7 6.7 0 0 1 .597-.933A7.025 7.025 0 0 0 2.255 4H4.09zm-.582 3.5c.03-.877.138-1.718.312-2.5H1.674a6.958 6.958 0 0 0-.656 2.5h2.49zM4.847 5a12.5 12.5 0 0 0-.338 2.5H7.5V5H4.847zM8.5 5v2.5h2.99a12.495 12.495 0 0 0-.337-2.5H8.5zM4.51 8.5a12.5 12.5 0 0 0 .337 2.5H7.5V8.5H4.51zm3.99 0V11h2.653c.187-.765.306-1.608.338-2.5H8.5zM5.145 12c.138.386.295.744.468 1.068.552 1.035 1.218 1.65 1.887 1.855V12H5.145zm.182 2.472a6.696 6.696 0 0 1-.597-.933A9.268 9.268 0 0 1 4.09 12H2.255a7.024 7.024 0 0 0 3.072 2.472zM3.82 11a13.652 13.652 0 0 1-.312-2.5h-2.49c.062.89.291 1.733.656 2.5H3.82zm6.853 3.472A7.024 7.024 0 0 0 13.745 12H11.91a9.27 9.27 0 0 1-.64 1.539 6.688 6.688 0 0 1-.597.933zM8.5 12v2.923c.67-.204 1.335-.82 1.887-1.855.173-.324.33-.682.468-1.068H8.5zm3.68-1h2.146c.365-.767.594-1.61.656-2.5h-2.49a13.65 13.65 0 0 1-.312 2.5zm2.802-3.5a6.959 6.959 0 0 0-.656-2.5H12.18c.174.782.282 1.623.312 2.5h2.49zM11.27 2.461c.247.464.462.98.64 1.539h1.835a7.024 7.024 0 0 0-3.072-2.472c.218.284.418.598.597.933zM10.855 4a7.966 7.966 0 0 0-.468-1.068C9.835 1.897 9.17 1.282 8.5 1.077V4h2.355z"/>
  </symbol>
</svg>